<svg id="Capa_1" enable-background="new 0 0 512 512" height="512" viewBox="0 0 512 512" width="512" xmlns="http://www.w3.org/2000/svg"><g id="XMLID_57_"><g><path d="m256 10c65.71 0 127.49 25.59 173.95 72.05s72.05 108.24 72.05 173.95-25.59 127.49-72.05 173.95-108.24 72.05-173.95 72.05-127.49-25.59-173.95-72.05-72.05-108.24-72.05-173.95 25.59-127.49 72.05-173.95 108.24-72.05 173.95-72.05z" fill="#cef"/><g fill="#fff"><path d="m411.355 140.645c-3.906-3.905-10.236-3.905-14.143 0l-8.287 8.287c-3.915-1.878-8.299-2.932-12.925-2.932s-9.01 1.054-12.926 2.932l-8.287-8.287c-3.905-3.905-10.235-3.906-14.143 0-3.905 3.905-3.905 10.237 0 14.142l8.287 8.287c-1.878 3.917-2.932 8.3-2.932 12.926s1.054 9.009 2.932 12.926l-8.287 8.287c-3.905 3.906-3.905 10.237 0 14.142 1.953 1.952 4.512 2.929 7.071 2.929s5.118-.976 7.071-2.929l8.287-8.287c3.917 1.878 8.301 2.932 12.927 2.932s9.01-1.054 12.926-2.932l8.287 8.287c1.953 1.953 4.512 2.929 7.071 2.929s5.118-.977 7.071-2.929c3.905-3.905 3.905-10.237 0-14.142l-8.287-8.287c1.878-3.917 2.932-8.3 2.932-12.926s-1.054-9.009-2.932-12.926l8.287-8.287c3.906-3.906 3.906-10.237 0-14.142z"/><path d="m211.355 340.645c-3.906-3.905-10.236-3.905-14.143 0l-8.287 8.287c-3.915-1.878-8.299-2.932-12.925-2.932s-9.01 1.054-12.926 2.932l-8.287-8.287c-3.905-3.905-10.235-3.905-14.143 0-3.905 3.905-3.905 10.237 0 14.142l8.287 8.287c-1.878 3.917-2.932 8.3-2.932 12.926s1.054 9.009 2.932 12.926l-8.287 8.287c-3.905 3.906-3.905 10.237 0 14.142 1.953 1.952 4.512 2.929 7.071 2.929s5.118-.976 7.071-2.929l8.287-8.287c3.917 1.878 8.301 2.932 12.927 2.932s9.01-1.054 12.926-2.932l8.287 8.287c1.953 1.953 4.512 2.929 7.071 2.929s5.118-.977 7.071-2.929c3.905-3.905 3.905-10.237 0-14.142l-8.287-8.287c1.878-3.917 2.932-8.3 2.932-12.926s-1.054-9.009-2.932-12.926l8.287-8.287c3.906-3.906 3.906-10.237 0-14.142z"/><circle cx="336" cy="356" r="40"/><circle cx="196" cy="196" r="60"/></g></g><g fill="#80aaff"><path d="m273.781 273.781c3.905-3.905 3.905-10.237 0-14.142l-21.74-21.74c6.867-9.161 11.531-20.058 13.233-31.899h30.726c5.522 0 10-4.477 10-10s-4.478-10-10-10h-30.726c-1.702-11.841-6.366-22.737-13.233-31.899l21.74-21.74c3.905-3.905 3.905-10.237 0-14.142s-10.235-3.905-14.143 0l-21.74 21.74c-9.161-6.867-20.058-11.531-31.898-13.233v-30.726c0-5.523-4.478-10-10-10s-10 4.477-10 10v30.726c-11.841 1.702-22.737 6.366-31.898 13.233l-21.74-21.74c-3.906-3.905-10.236-3.905-14.143 0-3.905 3.905-3.905 10.237 0 14.142l21.74 21.74c-6.867 9.161-11.531 20.058-13.233 31.899h-30.726c-5.522 0-10 4.477-10 10s4.478 10 10 10h30.726c1.702 11.841 6.366 22.737 13.233 31.899l-21.74 21.74c-3.905 3.905-3.905 10.237 0 14.142 1.953 1.953 4.512 2.929 7.071 2.929s5.118-.977 7.071-2.929l21.74-21.74c9.161 6.867 20.058 11.531 31.899 13.233v30.726c0 5.523 4.478 10 10 10s10-4.477 10-10v-30.726c11.841-1.702 22.737-6.366 31.899-13.233l21.74 21.74c1.953 1.953 4.512 2.929 7.071 2.929s5.118-.976 7.071-2.929zm-77.781-27.781c-27.57 0-50-22.43-50-50s22.43-50 50-50 50 22.43 50 50-22.43 50-50 50z"/><path d="m395.7 346.3h-10.653c-1.266-6.414-3.765-12.387-7.235-17.67l7.469-7.469c3.905-3.905 3.905-10.237 0-14.142-3.906-3.905-10.236-3.905-14.143 0l-7.403 7.403c-5.29-3.541-11.288-6.102-17.736-7.416v-10.406c0-5.523-4.478-10-10-10s-10 4.477-10 10v10.406c-6.448 1.314-12.445 3.875-17.736 7.416l-7.403-7.403c-3.906-3.905-10.236-3.905-14.143 0-3.905 3.905-3.905 10.237 0 14.142l7.469 7.469c-3.47 5.283-5.969 11.256-7.235 17.67h-10.651c-5.522 0-10 4.477-10 10s4.478 10 10 10h10.772c1.332 6.333 3.865 12.228 7.35 17.436l-7.703 7.703c-3.905 3.905-3.905 10.237 0 14.142 1.953 1.953 4.512 2.929 7.071 2.929s5.118-.976 7.071-2.929l7.769-7.769c5.201 3.416 11.069 5.897 17.37 7.181v11.007c0 5.523 4.478 10 10 10s10-4.477 10-10v-11.006c6.301-1.284 12.169-3.765 17.37-7.181l7.769 7.769c1.953 1.953 4.512 2.929 7.071 2.929s5.118-.976 7.071-2.929c3.905-3.905 3.905-10.237 0-14.142l-7.703-7.703c3.485-5.208 6.018-11.102 7.35-17.436h10.772c5.522 0 10-4.477 10-10s-4.477-10.001-10-10.001zm-59.7 39.7c-16.542 0-30-13.458-30-30s13.458-30 30-30 30 13.458 30 30-13.458 30-30 30z"/><path d="m437.021 74.979c-48.35-48.351-112.638-74.979-181.021-74.979s-132.671 26.628-181.021 74.979c-48.351 48.351-74.979 112.639-74.979 181.021s26.628 132.67 74.979 181.021 112.638 74.979 181.021 74.979 132.67-26.628 181.021-74.979 74.979-112.639 74.979-181.021-26.628-132.67-74.979-181.021zm-14.142 347.9c-44.573 44.573-103.839 69.121-166.879 69.121s-122.306-24.548-166.879-69.121-69.121-103.839-69.121-166.879 24.548-122.306 69.121-166.879 103.839-69.121 166.879-69.121 122.306 24.548 166.879 69.121 69.121 103.839 69.121 166.879-24.548 122.306-69.121 166.879z"/></g></g></svg>